<?xml version="1.0" encoding="utf-8"?>
<svg viewBox="0 0 461.9 402.72" xmlns="http://www.w3.org/2000/svg" xmlns:xlink="http://www.w3.org/1999/xlink">
  <defs>
    <linearGradient id="linear-gradient" x1="291.45" y1="-176.14" x2="249.14" y2="-234.83" gradientTransform="matrix(1, 0, 0, -1, -29.74, 174.13)" gradientUnits="userSpaceOnUse">
      <stop offset="0" stop-color="#010101" stop-opacity="0"/>
      <stop offset="0.95" stop-color="#010101"/>
    </linearGradient>
    <linearGradient id="linear-gradient-2" x1="285.87" y1="68.43" x2="279.05" y2="15.53" xlink:href="#linear-gradient"/>
    <linearGradient id="linear-gradient-3" x1="328.83" y1="-185.62" x2="326.1" y2="-116.68" gradientTransform="matrix(1, 0, 0, -1, -29.75, 174.13)" xlink:href="#linear-gradient"/>
    <linearGradient id="linear-gradient-4" x1="322.03" y1="-186.73" x2="333.28" y2="-186.73" gradientTransform="matrix(1, 0, 0, -1, -29.75, 174.13)" gradientUnits="userSpaceOnUse">
      <stop offset="0" stop-color="#fff" stop-opacity="0"/>
      <stop offset="0.95" stop-color="#fff"/>
    </linearGradient>
    <linearGradient id="linear-gradient-5" x1="411.6" y1="-55.91" x2="232.1" y2="-70.92" xlink:href="#linear-gradient"/>
    <linearGradient id="linear-gradient-6" x1="223.12" y1="-19.78" x2="292.4" y2="18.78" xlink:href="#linear-gradient"/>
    <linearGradient id="linear-gradient-7" x1="259.55" y1="-27.2" x2="375.57" y2="-4.68" xlink:href="#linear-gradient"/>
    <linearGradient id="linear-gradient-8" x1="132.99" y1="-31.92" x2="133.75" y2="-59.56" gradientTransform="matrix(1, 0, 0, -1, 0, 176.04)" xlink:href="#linear-gradient"/>
    <linearGradient id="linear-gradient-9" x1="154.99" y1="-181.55" x2="167.96" y2="55.28" gradientTransform="matrix(1, 0, 0, -1, 0, 176.04)" xlink:href="#linear-gradient"/>
    <linearGradient id="linear-gradient-10" x1="115.65" y1="-30.08" x2="119.06" y2="80.48" gradientTransform="matrix(1, 0, 0, -1, 0, 176.04)" xlink:href="#linear-gradient-4"/>
    <linearGradient id="linear-gradient-11" x1="141.78" y1="-11.72" x2="77.03" y2="-25.03" gradientTransform="matrix(1, 0, 0, -1, 0, 176.04)" xlink:href="#linear-gradient-4"/>
    <linearGradient id="linear-gradient-12" x1="270.37" y1="74.38" x2="271.73" y2="-34.14" xlink:href="#linear-gradient"/>
    <linearGradient id="linear-gradient-13" x1="266.87" y1="95.58" x2="263.46" y2="33.81" xlink:href="#linear-gradient"/>
    <linearGradient id="linear-gradient-14" x1="275.79" y1="67.39" x2="270.16" y2="38.73" xlink:href="#linear-gradient"/>
    <linearGradient id="linear-gradient-15" x1="341.48" y1="23.5" x2="175.12" y2="-48.16" xlink:href="#linear-gradient"/>
    <style>.cls-1,.cls-2{fill:#be22f2;}.cls-1{opacity:0.4;isolation:isolate;}.cls-3{fill:url(#linear-gradient);}.cls-4{fill:#606161;}.cls-5{fill:url(#linear-gradient-2);}.cls-6{fill:#cce8ec;}.cls-7{fill:url(#linear-gradient-3);}.cls-8{fill:url(#linear-gradient-4);}.cls-9{fill:#2a2d6b;}.cls-10{fill:url(#linear-gradient-5);}.cls-11{fill:#a37348;}.cls-12{fill:url(#linear-gradient-6);}.cls-13{fill:url(#linear-gradient-7);}.cls-14{fill:#a9aaab;}.cls-15{fill:url(#linear-gradient-8);}.cls-16{fill:url(#linear-gradient-9);}.cls-17{fill:url(#linear-gradient-10);}.cls-18{fill:url(#linear-gradient-11);}.cls-19{fill:url(#linear-gradient-12);}.cls-20{fill:url(#linear-gradient-13);}.cls-21{fill:url(#linear-gradient-14);}.cls-22{fill:url(#linear-gradient-15);}</style>
  </defs>
  <g id="Layer_2" data-name="Layer 2" transform="matrix(1.0000000000000002, 0, 0, 1.0000000000000002, 0, 0)">
    <g id="Layer_1-2" data-name="Layer 1">
      <path class="cls-1" d="M205.33,399.11c52.21-.76,104.57-1.53,156.34-8.4,12.92-1.72,26.27-4,37-11.41,9.18-6.35,15.62-15.93,20.78-25.83,8-15.4,13.57-32.49,13.17-49.86-.46-20.21-8.86-39.84-7.63-60,1.34-21.72,13.54-41,22.75-60.69,9.61-20.55,16.29-43.25,13.54-65.77-3.91-32-26.78-59.44-54.48-76S346.9,17.3,315.07,11.94A851.06,851.06,0,0,0,194.6.11c-19.34-.42-39.34,0-57.16,7.46-16.56,7-30,19.54-42.47,32.54A521.6,521.6,0,0,0,15.91,147.48C7.8,162.1.23,177.78,0,194.48c-.38,28.65,20.31,52.63,31.57,79,10.68,24.9,11.81,51.17,6.68,77.49-3.51,18.12-9,37.42,11.32,46.77,19.87,9.15,50.38,2.94,71.48,2.63Z" style="fill: rgb(242, 34, 238);"/>
      <path class="cls-2" d="M251.11,391.47a1.53,1.53,0,0,1-1,1.93,1.49,1.49,0,0,1-.55.07c-11.84,2-23.94,1.3-35.92.63-.92-5.2,3.23-10.11,8-12.36s10.19-2.65,15.28-4a35.15,35.15,0,0,1,6.49-1.51C252.75,375.49,250.8,385,251.11,391.47Z"/>
      <path class="cls-3" d="M251.11,391.47a1.53,1.53,0,0,1-1,1.93,1.49,1.49,0,0,1-.55.07c-11.84,2-23.94,1.3-35.92.63-.92-5.2,3.23-10.11,8-12.36s10.19-2.65,15.28-4a35.15,35.15,0,0,1,6.49-1.51C252.75,375.49,250.8,385,251.11,391.47Z"/>
      <path class="cls-4" d="M215.26,110.44c-1.24-8.59-1.73-18.17,3.48-25.11,4.22-5.62,11.61-8.32,18.62-7.92S251,81,256.59,85.23a31,31,0,0,1,8,8.43c7.43,12.41,1.75,30.55,11.65,41.1,3.49,3.72,8.45,5.81,12,9.48a18.54,18.54,0,0,1-11.74,31.38c-5.41.46-10.72-1.46-16.1-2.18-8.61-1.16-17.39.73-26-.24s-18-6.26-19-14.88,6.41-16.19,5.76-24.71c-.46-5.91-4.67-10.75-7.36-16s-3.3-12.92,1.72-16.1"/>
      <path class="cls-5" d="M215.26,110.44c-1.24-8.59-1.73-18.17,3.48-25.11,4.22-5.62,11.61-8.32,18.62-7.92S251,81,256.59,85.23a31,31,0,0,1,8,8.43c7.43,12.41,1.75,30.55,11.65,41.1,3.49,3.72,8.45,5.81,12,9.48a18.54,18.54,0,0,1-11.74,31.38c-5.41.46-10.72-1.46-16.1-2.18-8.61-1.16-17.39.73-26-.24s-18-6.26-19-14.88,6.41-16.19,5.76-24.71c-.46-5.91-4.67-10.75-7.36-16s-3.3-12.92,1.72-16.1"/>
      <rect class="cls-6" x="296.7" y="379.23" width="2.41" height="3.87"/>
      <rect class="cls-2" x="289.87" y="308.87" width="16.07" height="42.01"/>
      <rect class="cls-7" x="289.87" y="308.87" width="16.07" height="42.01"/>
      <rect class="cls-2" x="289.87" y="370.85" width="16.07" height="7.85" style="fill: rgb(190, 34, 242);"/>
      <rect class="cls-2" x="292.28" y="350.65" width="11.25" height="20.43"/>
      <rect class="cls-8" x="292.28" y="350.65" width="11.25" height="20.43"/>
      <rect class="cls-2" x="261.29" y="375.45" width="73.24" height="3.9" style="fill: rgb(190, 34, 242);"/>
      <rect class="cls-9" x="294.4" y="381.3" width="7.02" height="10.45" rx="1.41"/>
      <rect class="cls-6" x="330.07" y="379.12" width="2.41" height="5.28"/>
      <rect class="cls-6" x="263.46" y="379.12" width="2.41" height="5.28"/>
      <circle class="cls-9" cx="333.15" cy="387.1" r="5.21"/>
      <circle class="cls-9" cx="262.67" cy="386.76" r="5.21"/>
      <path class="cls-2" d="M362,172H305.7a12.6,12.6,0,0,0-12.39,10.28l-22.78,121.5,65.54-5.46Z"/>
      <path class="cls-10" d="M362,172H305.7a12.6,12.6,0,0,0-12.39,10.28l-22.78,121.5,65.54-5.46Z"/>
      <path class="cls-2" d="M282.34,301.73a9.11,9.11,0,0,1,9.11-9.11h43.81c7.23-45.33,17.08-107.44,17.65-112.21a9.11,9.11,0,0,1,18.19.69c0,.92,0,2.62-19.08,122.06a9.12,9.12,0,0,1-9,7.67H291.45A9.1,9.1,0,0,1,282.34,301.73ZM352.9,181.11v-.61A3.11,3.11,0,0,0,352.9,181.11Z" style="fill: rgb(190, 34, 242);"/>
      <path class="cls-2" d="M236.45,310.83h61.07a9.11,9.11,0,0,0,0-18.21H236.45a9.11,9.11,0,1,0-.61,18.21Z" style="fill: rgb(190, 34, 242);"/>
      <path class="cls-4" d="M294.68,254.05s-83.17,31.16-83.56,32.58c-2.68,10,23,92,23,92s8.55,5.47,18.61-1.09l-7.95-73.67L285.52,292S304.26,284,294.68,254.05Z"/>
      <path class="cls-4" d="M239.87,252.52s-58,27.36-57.49,28.75,11.24,89.51,11.24,89.51,7.7,5.19,18.53,0l1.7-74.07,70.09-10.07s6.9-10.35,10.74-32.58C287.13,248,241.91,251.8,239.87,252.52Z"/>
      <path class="cls-11" d="M174.92,209.11s-11.76-3.43-16.38-3-14.78,5.47-15.74,5.88-2.25,2.7,7,1.87,12.84,6.16,19.68,4.72S178,213,178,213"/>
      <path class="cls-2" d="M228.15,139.68l-19.35,56-35.7,11.79s-3.53,2.53,1,11.42c0,0,35.84-.32,44.15-3.94s22.36-56.41,22.36-56.41"/>
      <path class="cls-12" d="M228.15,139.68l-19.35,56-35.7,11.79s-3.53,2.53,1,11.42c0,0,35.84-.32,44.15-3.94s22.36-56.41,22.36-56.41"/>
      <path class="cls-2" d="M264.52,143.38c4.93,6.2,8.54,14,11.74,20.62a141.14,141.14,0,0,1,13,44.47c1.06,9.18,1,18.57,2.06,27.92.17,1.45,3,17.83,1.79,18.35,0,0-19.06,6.83-47.93,7.22-3.09,0-13.44,1.62-15.29-1.74-1.17-2.12,1-8.88,1.15-11.22,1.17-13.61.92-20.59,1.33-34.24.15-5-8.07-25.62-10.38-28.23-3.05-3.44-4.15-8.31-3.72-12.89.38-4.14,2.57-7.48,3.38-11.41.75-3.57.39-7.06,1.57-10.68,3.91-11.87,14.6-21.79,27.81-19.5C258.1,133.28,260.15,137.89,264.52,143.38Z"/>
      <path class="cls-13" d="M264.52,143.38c4.93,6.2,8.54,14,11.74,20.62a141.14,141.14,0,0,1,13,44.47c1.06,9.18,1,18.57,2.06,27.92.17,1.45,3,17.83,1.79,18.35,0,0-19.06,6.83-47.93,7.22-3.09,0-13.44,1.62-15.29-1.74-1.17-2.12,1-8.88,1.15-11.22,1.17-13.61.92-20.59,1.33-34.24.15-5-8.07-25.62-10.38-28.23-3.05-3.44-4.15-8.31-3.72-12.89.38-4.14,2.57-7.48,3.38-11.41.75-3.57.39-7.06,1.57-10.68,3.91-11.87,14.6-21.79,27.81-19.5C258.1,133.28,260.15,137.89,264.52,143.38Z"/>
      <path class="cls-14" d="M231,249s-13.53,9.62-9.62,11.95c3.58,2.14,28.84,2.49,32.23,4.74s9.11,10.21,22.71,13.74,18.37-5.84,19.36-13.74a20.52,20.52,0,0,0-2.61-13.16S243.26,258.11,231,249Z"/>
      <rect class="cls-2" x="92.33" y="213.46" width="81.79" height="5.38"/>
      <rect class="cls-15" x="92.33" y="213.46" width="81.79" height="5.38"/>
      <rect class="cls-2" x="83.8" y="218.51" width="182.91" height="5.46" style="fill: rgb(190, 34, 242);"/>
      <rect class="cls-2" x="84.82" y="223.61" width="145.49" height="174.06"/>
      <rect class="cls-16" x="84.82" y="223.61" width="145.49" height="174.06"/>
      <rect class="cls-2" x="63.15" y="120.57" width="107.84" height="79.17" rx="10.31"/>
      <rect class="cls-17" x="63.15" y="120.57" width="107.84" height="79.17" rx="10.31"/>
      <path class="cls-2" d="M104.34,167.67h13.34a8.94,8.94,0,0,1,8.94,8.94h0v42.24H95.4V176.61A8.94,8.94,0,0,1,104.34,167.67Z"/>
      <path class="cls-18" d="M104.34,167.67h13.34a8.94,8.94,0,0,1,8.94,8.94h0v42.24H95.4V176.61A8.94,8.94,0,0,1,104.34,167.67Z"/>
      <path class="cls-11" d="M233.59,142.57a5.25,5.25,0,0,0,.32,2,3.75,3.75,0,0,0,2.92,2.05,8.3,8.3,0,0,0,3.66-.43c5.35-1.63,10.3-5.93,10.9-11.49a16.83,16.83,0,0,0-.38-5,36.88,36.88,0,0,0-2.33-7.46c-1-2.25-2.48-4.63-4.89-5s-4.88,1.58-6.34,3.73C233.26,127,233.42,135.47,233.59,142.57Z"/>
      <path class="cls-19" d="M248,130.31a14.49,14.49,0,0,1-6.05,7.73,6.34,6.34,0,0,1-3.69,1c-2.2-.22-3.93-2.07-4.8-4.1a16,16,0,0,1-1.12-5.72A18.3,18.3,0,0,1,234.4,119c1.77-3,5-5.3,8.53-5.22C251.89,114,250,124.77,248,130.31Z"/>
      <path class="cls-11" d="M218.26,97.89l2.09,13.22a70.87,70.87,0,0,0,2.91,13.26c1.24,3.43,3.15,6.83,6.32,8.63a11.9,11.9,0,0,0,10.35.31,19.39,19.39,0,0,0,8-6.88c5.07-7.21,6.47-16.47,5.73-25.25-.43-5.17-1.65-10.47-4.85-14.55a17.67,17.67,0,0,0-16-6.44C224.35,81.39,217,89.29,218.26,97.89Z"/>
      <path class="cls-2" d="M261.4,102.88a15.31,15.31,0,0,0-1.21-2.75,26.74,26.74,0,0,0,.31-4,24.92,24.92,0,1,0-49.84,0v0a25.08,25.08,0,0,0,.33,4.06,14.17,14.17,0,0,0-1.18,2.71c-.58,1.58-.21,9.22.51,10.26,1.32,1.91,4.9,3.4,7.18,3.69a1.37,1.37,0,0,0,1.16.45,1.34,1.34,0,0,0,1.24-1.43v0l-1.25-13.74a1.37,1.37,0,0,0-1.49-1.2,1.44,1.44,0,0,0-.86.42h-.37a3.44,3.44,0,0,1-2.31-1.77,21.33,21.33,0,0,1-.27-3.39c0-12.46,10-21,22.23-21s22.23,8.56,22.23,21a21.71,21.71,0,0,1-.27,3.42,3.49,3.49,0,0,1-2.26,1.67h-.37a1.37,1.37,0,0,0-1.94,0,1.32,1.32,0,0,0-.41.82l-1.25,13.74a1.35,1.35,0,0,0,1.24,1.45,1.39,1.39,0,0,0,1.16-.45c2.28-.29,5.86-1.78,7.18-3.69C261.61,112.11,262,104.46,261.4,102.88Z"/>
      <path class="cls-20" d="M261.4,102.88a15.31,15.31,0,0,0-1.21-2.75,26.74,26.74,0,0,0,.31-4,24.92,24.92,0,1,0-49.84,0v0a25.08,25.08,0,0,0,.33,4.06,14.17,14.17,0,0,0-1.18,2.71c-.58,1.58-.21,9.22.51,10.26,1.32,1.91,4.9,3.4,7.18,3.69a1.37,1.37,0,0,0,1.16.45,1.34,1.34,0,0,0,1.24-1.43v0l-1.25-13.74a1.37,1.37,0,0,0-1.49-1.2,1.44,1.44,0,0,0-.86.42h-.37a3.44,3.44,0,0,1-2.31-1.77,21.33,21.33,0,0,1-.27-3.39c0-12.46,10-21,22.23-21s22.23,8.56,22.23,21a21.71,21.71,0,0,1-.27,3.42,3.49,3.49,0,0,1-2.26,1.67h-.37a1.37,1.37,0,0,0-1.94,0,1.32,1.32,0,0,0-.41.82l-1.25,13.74a1.35,1.35,0,0,0,1.24,1.45,1.39,1.39,0,0,0,1.16-.45c2.28-.29,5.86-1.78,7.18-3.69C261.61,112.11,262,104.46,261.4,102.88Z"/>
      <path class="cls-2" d="M255.56,116.11c-1.49-1.16-2,0-2,0-.8,1.43-5.4,7.85-15.37,10.71a4.9,4.9,0,0,0-3.57-1.28c-2.24,0-4.05,1.07-4.05,2.39s1.81,2.4,4.05,2.4,4-1.06,4-2.38C242.16,126.88,250.86,123.64,255.56,116.11Z"/>
      <path class="cls-21" d="M255.56,116.11c-1.49-1.16-2,0-2,0-.8,1.43-5.4,7.85-15.37,10.71a4.9,4.9,0,0,0-3.57-1.28c-2.24,0-4.05,1.07-4.05,2.39s1.81,2.4,4.05,2.4,4-1.06,4-2.38C242.16,126.88,250.86,123.64,255.56,116.11Z"/>
      <path class="cls-4" d="M222,91.86a22.43,22.43,0,0,1,2.5,2.91A15.45,15.45,0,0,0,242,99c2-.86,4.1-2.19,6.19-1.59a15.45,15.45,0,0,1,3.07,1.72c1,.59,2.41.89,3.32.14a3,3,0,0,0,.86-2.22c.1-3.1-1.8-5.86-3.61-8.37a24.3,24.3,0,0,0-5.2-5.74A16.3,16.3,0,0,0,241,80.54,24.72,24.72,0,0,0,225.36,82a13.27,13.27,0,0,0-4.76,3.31c-.8.94-2.27,3.18-1.83,4.52S220.94,90.93,222,91.86Z"/>
      <path class="cls-11" d="M262.26,99.85a3.13,3.13,0,0,0-1.76-.62,2.23,2.23,0,0,0-1.81,1.58,6.45,6.45,0,0,0-.19,2.51l.63,11.48a16.9,16.9,0,0,0,.48,3.75c.9,3.24,3.52,5.66,6,7.89a8.17,8.17,0,0,0,3.72,2.28,5.63,5.63,0,0,0,5.26-2.37C281.35,117.66,269.46,104.26,262.26,99.85Z"/>
      <path class="cls-2" d="M274.4,187.66c6.37,7.08,14.65,12.74,24,14.56a2.27,2.27,0,0,0,3-1.16,2.08,2.08,0,0,0,.18-.6c2.82-7.49,2.25-15.88.31-23.65s-5.16-15.15-7.65-22.76c-3-9.29-16.76-34.33-17.8-34.33-3.72,0-7.34,4.09-9.55,6.65.36,8.52,7.08,14.77,8.36,23.21-1-4.68-7.85-10-12.12-12.13-1.78-.9-9.46-5.74-11.09-4.59-1.27.89,3.66,6.86,3.37,8.39C252.34,157.39,264,176.11,274.4,187.66Z"/>
      <path class="cls-22" d="M274.4,187.66c6.37,7.08,14.65,12.74,24,14.56a2.27,2.27,0,0,0,3-1.16,2.08,2.08,0,0,0,.18-.6c2.82-7.49,2.25-15.88.31-23.65s-5.16-15.15-7.65-22.76c-3-9.29-16.76-34.33-17.8-34.33-3.72,0-7.34,4.09-9.55,6.65.36,8.52,7.08,14.77,8.36,23.21-1-4.68-7.85-10-12.12-12.13-1.78-.9-9.46-5.74-11.09-4.59-1.27.89,3.66,6.86,3.37,8.39C252.34,157.39,264,176.11,274.4,187.66Z"/>
    </g>
  </g>
</svg>