<svg xmlns="http://www.w3.org/2000/svg" width="190" height="235">
<path style="fill:#ffffff; stroke:none;" d="M92 226C98.3546 221.486 102.999 214.787 108.166 209C118.962 196.908 128.977 184.178 138.421 171C149.666 155.308 160.496 137.566 166.226 119C169.864 107.212 170.824 95.183 169.13 83C167.577 71.8236 163.968 61.4311 157.641 52C126.763 5.97122 56.619 5.94009 26.6952 53C21.6692 60.9042 17.7619 69.8061 15.8187 79C13.8579 88.2773 14.258 99.7615 16.2106 109C20.1892 127.824 29.7293 146.092 40.3333 162C55.5094 184.766 73.0917 206.243 92 226z"/>
<path style="fill:#6029a1; stroke:none;" d="M92 139L92 169C98.5007 165.527 103.241 157.693 107.8 152C120.069 136.681 136.028 117.555 136.961 97C138.44 64.4151 107.983 44.5063 78 52.3511C52.376 59.0553 41.2154 91.3694 51.8904 114C59.3928 129.905 74.7764 138.989 92 139z"/>
</svg>