<?xml version="1.0" encoding="utf-8"?>
<svg viewBox="0 0 149.48958 135.73125" xmlns="http://www.w3.org/2000/svg">
  <g id="layer1" transform="matrix(1, 0, 0, 1, -30.179922103881808, -80.6343765258789)">
    <path style="fill:#ffffff" d="M 79.774 215.409 C 78.731 215.107 78.36 214.678 77.055 212.265 C 76.012 210.336 75.982 210.308 75.718 211.001 C 75.234 212.274 73.898 212.283 70.724 211.037 C 68.119 210.015 66.545 208.945 66.175 207.945 C 65.638 206.492 65.501 206.343 64.354 205.961 C 62.256 205.261 61.981 203.749 63.511 201.335 C 65.299 198.516 68.133 198.743 70.676 201.907 C 71.994 203.547 71.939 202.994 70.596 201.094 C 67.491 196.701 62.641 187.599 58.638 178.652 C 52.472 164.87 47.691 159.625 44.726 163.393 C 43.167 165.375 41.01 165.516 39.942 163.705 C 39.394 162.777 39.394 162.777 35.848 162.777 C 32.873 162.777 32.302 162.713 32.302 162.38 C 32.302 162.048 32.854 161.984 35.676 161.984 C 39.049 161.984 39.049 161.984 39.061 159.536 C 39.072 157.364 39.245 156.493 40.599 151.797 C 41.438 148.887 42.293 145.899 42.5 145.158 C 43.357 142.088 44.424 141.553 51.698 140.541 C 53.75 140.256 55.553 139.889 55.705 139.726 C 55.908 139.509 55.734 139.471 55.057 139.585 C 37.791 142.474 36.166 140.982 39.971 125.736 C 43.942 109.826 43.707 110.278 48.86 108.669 C 50.514 108.153 52.73 107.317 53.785 106.811 C 55.052 106.204 56.087 105.892 56.835 105.892 C 57.791 105.892 57.967 105.809 57.967 105.363 C 57.967 104.472 58.716 104.772 59.454 105.958 C 61.928 109.936 64.729 111.805 66.693 110.79 C 67.166 110.545 67.778 110.403 68.052 110.475 C 68.326 110.546 68.55 110.514 68.55 110.403 C 68.55 110.292 67.75 110.004 66.771 109.762 C 63.017 108.836 61.897 107.347 61.722 103.053 C 61.615 100.429 61.585 100.319 60.753 99.436 C 58.364 96.903 59.406 93.973 62.418 94.755 C 63.857 95.129 63.93 95.077 64.326 93.391 C 65.496 88.413 66.857 87.251 70.294 88.294 C 72.129 88.851 72.481 88.806 72.686 87.987 C 73.234 85.804 66.789 84.368 63.191 85.872 C 59.267 87.511 57.645 93.412 59.644 98.78 C 60.732 101.703 60.121 103.577 58.637 101.871 C 54.36 96.953 55.11 86.206 59.902 83.749 C 64.667 81.305 76.475 85.759 73.395 88.838 C 73.022 89.212 73.04 89.418 73.59 91.023 C 74.005 92.231 74.209 93.468 74.231 94.912 C 74.254 96.341 74.411 97.303 74.715 97.875 C 75.258 98.898 75.294 99.899 74.802 100.307 C 74.1 100.89 74.093 102.699 74.786 104.348 C 75.221 105.381 75.43 106.38 75.43 107.43 C 75.43 109.153 75.616 109.425 77.414 110.333 C 83.976 113.646 87.417 142.611 81.907 148.159 C 80.266 149.812 79.157 149.772 78.338 148.03 C 78.014 147.341 77.168 146.14 76.457 145.363 C 75.746 144.585 75.165 143.78 75.165 143.574 C 75.165 142.973 74.576 143.153 73.55 144.068 C 68.136 148.893 71.372 155.078 77.206 151.056 C 80.63 148.694 85.905 151.611 91.224 158.809 C 93.289 161.602 94.871 161.963 105.063 161.968 C 112.817 161.972 112.241 162.264 113.125 157.88 C 115.29 147.14 118.116 140.941 119.88 143.066 C 121.687 145.244 117.977 157.367 114.449 160.811 C 113.058 162.169 113.058 162.169 112.617 164.982 C 111.269 173.578 107.163 180.39 99.709 186.398 C 95.9 189.469 95.684 189.889 97.462 190.763 C 99.964 191.991 102.819 191.76 106.331 190.045 C 107.744 189.355 109.896 188.46 111.115 188.055 C 114.633 186.885 114.706 186.733 113.53 183.06 C 112.38 179.471 112.478 179.097 116.306 172.435 C 117.504 170.348 117.902 169.36 118.188 167.763 C 119.197 162.11 122.533 155.197 124.685 154.296 C 125.642 153.895 127.055 154.541 130.681 157.035 C 134.578 159.716 134.255 159.6 134.044 158.247 C 133.47 154.578 131.829 150.323 129.653 146.864 C 128.861 145.605 128.085 144.36 127.927 144.096 C 127.687 143.695 127.251 143.609 125.281 143.576 C 117.979 143.452 116.118 138.862 119.371 128.997 C 120.14 126.664 121.797 126.016 121.342 128.226 C 121.279 128.53 120.965 129.909 120.644 131.292 C 119.07 138.058 119.951 140.603 124.384 142.1 C 126.186 142.709 126.15 142.754 125.405 140.817 C 124.977 139.701 124.79 138.373 124.607 135.128 C 124.184 127.641 124.695 127.098 123.136 126.979 C 120.538 126.78 119.242 125.43 119.46 121.37 C 119.867 113.792 121.56 111.324 127.619 109.476 C 130.096 108.721 130.218 108.612 129.411 107.882 C 129.124 107.622 128.818 107.187 128.732 106.915 C 128.646 106.643 128.423 106.421 128.237 106.421 C 127.56 106.421 127.023 105.465 127.023 104.259 C 127.023 103.602 126.785 102.372 126.494 101.526 C 125.86 99.684 125.835 98.974 126.365 97.949 C 126.679 97.341 126.708 96.926 126.502 96.004 C 126.193 94.627 126.601 92.94 127.573 91.575 C 127.911 91.101 128.204 90.482 128.225 90.199 C 128.375 88.158 133.89 87.268 137.645 88.679 C 141.874 90.268 142.643 91.814 143.834 101.129 C 144.96 109.941 144.968 109.965 147.241 111.016 C 150.94 112.724 152.315 114.723 153.1 119.531 C 153.602 122.608 153.51 126.085 152.91 126.685 C 152.563 127.032 152.563 127.283 152.912 128.854 C 153.33 130.733 153.499 145.098 153.217 154.707 C 152.998 162.127 152.512 161.948 172.994 161.976 C 177.494 161.982 178.617 162.054 178.617 162.336 C 178.617 163.045 155.143 162.467 153.752 161.722 C 152.515 161.06 152.348 159.703 152.592 152.326 C 153.374 128.72 152.661 125.512 147.754 130.538 C 146.475 131.848 146.95 140.5 148.402 142.345 C 150.363 144.838 150.945 146.998 151.376 153.385 C 151.603 156.762 151.837 158.377 152.312 159.867 C 153.356 163.139 152.949 164.624 150.662 165.886 C 148.019 167.345 146.034 166.792 145.69 164.5 C 145.546 163.536 145.361 163.225 144.741 162.905 C 142.696 161.847 143.315 160.047 146.141 158.836 C 148.112 157.991 148.105 158.045 147.474 149.308 C 146.952 142.081 146.89 141.637 146.25 140.624 C 144.648 138.086 144.392 135.086 145.547 132.401 C 146.405 130.406 145.94 127.719 144.485 126.264 C 143.372 125.152 142.904 123.538 143.416 122.58 C 144.003 121.484 144.733 122.222 145.539 124.726 C 146.212 126.819 146.546 126.972 149.28 126.438 C 150.251 126.249 151.282 126.188 151.591 126.303 C 152.42 126.609 152.687 125.869 152.687 123.263 C 152.687 116.777 151.021 113.526 146.685 111.549 C 143.858 110.261 143.584 110.315 140.517 112.772 C 134.238 117.8 128.004 115.775 130.862 109.636 C 131.803 107.614 131.543 106.686 130.033 106.686 C 129.377 106.686 129.377 106.686 130.052 107.57 C 131.18 109.049 131.075 109.162 127.509 110.285 C 121.924 112.043 120.158 114.933 120.147 122.333 C 120.142 125.74 123.448 128.076 123.938 125.012 C 124.258 123.015 125.815 121.907 126.582 123.131 C 127.051 123.879 126.352 125.659 125.395 126.153 C 124.588 126.571 124.583 126.588 124.744 128.205 C 124.834 129.103 125.013 131.801 125.143 134.202 C 125.369 138.381 126.112 141.783 127.011 142.749 C 127.12 142.865 128.923 142.997 131.018 143.042 C 136.366 143.157 142.335 144.624 142.578 145.883 C 142.753 146.791 140.255 146.524 132.586 144.817 C 128.319 143.867 128.504 143.756 130.129 146.296 C 132.505 150.008 133.609 152.752 134.526 157.221 C 135.175 160.381 135.678 160.749 139.79 161.073 C 144.616 161.452 144.233 162.49 139.194 162.693 C 136.02 162.82 135.339 162.6 134.649 161.223 C 133.865 159.659 126.212 154.654 125.05 154.945 C 123.747 155.273 120.698 160.749 119.608 164.722 C 118.823 167.584 119.053 167.485 120.784 164.215 C 124.541 157.117 127.166 155.642 130.462 158.778 C 131.851 160.099 131.832 160.725 130.301 163.855 C 128.235 168.077 128.277 167.877 128.065 174.551 C 127.871 180.637 127.871 180.637 126.362 186.061 C 124.362 193.246 124.161 195.93 125.382 199.157 C 125.823 200.322 126.258 201.533 126.35 201.85 C 126.554 202.555 126.069 203.743 124.831 205.567 C 124.315 206.327 123.809 207.339 123.706 207.816 C 123.05 210.852 120.957 212.519 117.8 212.519 C 114.59 212.519 114.245 211.231 115.992 205.772 C 118.357 198.383 118.597 195.385 117.792 183.345 C 117.59 180.324 117.485 176.484 117.559 174.812 C 117.632 173.141 117.659 171.773 117.618 171.773 C 117.501 171.773 115.27 175.704 114.357 177.52 C 113.356 179.51 113.33 180.355 114.191 182.886 C 115.473 186.655 115.126 187.429 111.643 188.579 C 110.425 188.982 108.237 189.908 106.782 190.638 C 101.969 193.054 95.802 192.508 95.802 189.667 C 95.802 188.713 96.508 187.943 99.558 185.566 C 106.155 180.426 110.659 173.003 111.849 165.308 C 112.361 162 112.496 162.246 110.354 162.565 C 108.36 162.861 97.845 162.622 95.273 162.221 C 93.005 161.868 92.217 161.37 90.695 159.325 C 85.751 152.686 80.387 149.45 77.781 151.537 C 74.118 154.471 70.137 153.143 70.137 148.988 C 70.137 146.83 71.5 144.66 74.142 142.608 C 74.448 142.371 74.625 141.649 74.746 140.155 C 75.113 135.594 76.261 130.568 77.045 130.083 C 79.092 128.818 78.401 138.278 76.212 141.485 C 75.354 142.743 75.528 143.338 77.299 145.182 C 77.857 145.765 78.564 146.806 78.868 147.498 C 79.531 148.999 79.867 149.046 81.218 147.826 C 86.769 142.81 83.298 114.122 76.735 110.781 C 76.071 110.443 75.376 109.983 75.19 109.759 C 74.886 109.392 74.785 109.394 74.196 109.78 C 73.774 110.057 72.819 110.239 71.508 110.291 C 69.302 110.38 68.877 113.981 69.853 124.321 C 70.293 128.979 70.171 128.786 72.274 128.127 C 77.02 126.64 77.07 130.281 72.342 133.051 C 71.017 133.828 71.039 133.67 71.725 137.642 C 72.931 144.62 72.903 144.656 66.257 144.646 C 58.663 144.634 58.458 144.492 60.185 140.449 C 61.761 136.758 61.891 136.091 61.144 135.527 C 60.784 135.255 60.422 134.53 60.21 133.651 C 59.981 132.701 59.856 132.462 59.841 132.943 C 59.829 133.341 60.057 134.294 60.348 135.059 C 61.27 137.487 60.61 138.96 58.598 138.964 C 58.291 138.964 57.6 139.314 57.063 139.74 C 55.952 140.624 55.918 140.633 51.087 141.332 C 45.04 142.207 43.795 142.844 43.145 145.393 C 42.989 146.005 42.315 148.41 41.649 150.739 C 39.694 157.563 39.287 160.043 39.871 161.565 C 40.759 163.879 46.683 161.196 46.213 158.692 C 45.231 153.455 51.831 143.755 56.392 143.733 C 59.465 143.718 58.849 145.349 54.555 148.601 C 50.704 151.518 50.083 152.354 48.077 157.328 C 46.847 160.379 47.524 161.782 50.382 162.104 C 54.229 162.538 54.832 163.474 64.741 184.396 C 70.838 197.271 71.085 197.702 72.344 197.702 C 73.043 197.702 76.299 196.153 76.156 195.889 C 73.339 190.691 71.621 185.996 71.79 183.959 C 71.896 182.684 71.722 182.004 70.34 178.267 C 63.71 160.347 63.727 157.325 70.439 160.473 C 78.446 164.229 79.071 166.136 75.348 175.477 C 72.366 182.959 72.478 181.986 74.116 186.111 C 75.967 190.771 77.461 194.102 77.744 194.196 C 78.899 194.581 82.947 184.212 86.794 171.013 C 88.931 163.683 89.702 161.799 90.665 161.557 C 93.213 160.918 92.678 164.811 88.483 177.462 C 84.573 189.253 81.798 195.567 79.916 196.958 C 78.891 197.716 80.633 200.92 84.918 206.155 C 87.765 209.633 88.03 210.983 86.248 212.916 C 84.493 214.821 81.595 215.936 79.773 215.409 L 79.774 215.409 Z M 83.424 214.143 C 87.359 212.238 87.505 210.488 84.081 206.265 C 82.264 204.024 79.853 200.452 78.927 198.628 C 78.041 196.886 76.886 196.446 75.415 197.292 C 71.265 199.679 71.027 199.447 65.487 187.648 C 55.331 166.015 53.75 163.304 51.04 162.872 C 49.897 162.689 49.897 162.689 51.304 164.229 C 53.944 167.119 55.378 169.622 58.888 177.462 C 63.553 187.881 67.068 194.471 71.592 201.274 C 73.237 203.748 74.932 206.486 75.359 207.36 C 79.224 215.264 79.912 215.843 83.424 214.143 Z M 119.511 211.599 C 121.239 211.086 122.124 210.112 123.026 207.729 C 123.434 206.653 124.202 205.135 124.734 204.356 C 125.913 202.63 125.918 202.41 124.847 199.863 C 123.245 196.057 123.476 193.807 126.652 182.224 C 127.331 179.747 127.374 179.274 127.327 174.816 C 127.266 169.154 127.416 168.365 129.299 164.398 C 131.225 160.341 131.153 159.688 128.636 158.415 C 126.114 157.139 124.645 158.527 120.654 165.952 C 118.126 170.656 117.743 174.575 118.661 186.35 C 119.373 195.485 119.128 198.176 116.96 204.982 C 115.274 210.273 115.254 211.409 116.837 211.798 C 117.769 212.028 118.169 211.998 119.511 211.599 Z M 75.024 209.717 C 75.002 206.559 67.829 199.182 65.745 200.175 C 63.656 201.172 62.6 204.329 64.119 205.036 C 64.519 205.223 65.174 205.528 65.574 205.714 C 66.072 205.945 66.413 206.402 66.655 207.161 C 67.056 208.421 67.728 208.921 70.898 210.315 C 73.97 211.666 75.036 211.511 75.024 209.717 Z M 79.849 196.049 C 83.044 192.543 92.287 166.203 91.468 162.938 C 90.879 160.591 89.764 163.098 86.831 173.361 C 84.105 182.899 81.186 190.56 79.053 193.772 C 77.692 195.821 78.347 197.696 79.849 196.049 Z M 77.546 195.983 C 77.546 195.91 77.487 195.85 77.414 195.85 C 77.341 195.85 77.282 195.91 77.282 195.983 C 77.282 196.055 77.341 196.115 77.414 196.115 C 77.487 196.115 77.546 196.055 77.546 195.983 Z M 75.612 191.591 C 74.829 189.786 73.843 187.417 73.42 186.325 C 72.81 184.749 72.635 184.485 72.57 185.04 C 72.396 186.543 76.591 196.202 76.95 195.126 C 76.996 194.986 76.394 193.396 75.612 191.591 Z M 74.62 175.402 C 77.999 166.909 77.9 166.042 73.181 162.902 C 64.725 157.276 64.198 159.225 69.909 175.014 C 72.515 182.219 71.927 182.171 74.62 175.402 Z M 149.931 165.451 C 152.157 164.44 152.631 162.911 151.614 160.02 C 151.224 158.91 150.964 157.059 150.695 153.491 C 150.267 147.814 150.024 146.583 148.912 144.455 C 147.964 142.643 147.691 142.543 147.827 144.058 C 148.988 157.015 148.882 158.423 146.678 159.38 C 144.286 160.42 143.689 161.378 144.949 162.157 C 145.971 162.791 146.338 163.301 146.338 164.092 C 146.338 165.857 147.81 166.414 149.931 165.451 Z M 43.287 163.637 C 44.426 162.851 43.759 162.601 41.133 162.828 C 40.1 162.917 40.715 164.365 41.785 164.365 C 42.032 164.365 42.708 164.037 43.287 163.637 Z M 139.856 161.984 C 139.952 161.828 139.659 161.718 139.144 161.716 C 138.662 161.714 137.613 161.537 136.813 161.322 C 134.993 160.834 135.055 160.828 135.609 161.44 C 135.865 161.723 136.33 162.004 136.642 162.065 C 137.788 162.289 139.697 162.241 139.856 161.984 Z M 47.64 161.785 C 47.608 161.025 46.817 160.535 46.441 161.042 C 45.884 161.794 45.968 161.984 46.855 161.984 C 47.291 161.984 47.644 161.894 47.64 161.785 Z M 114.585 159.668 C 116.753 157.073 119.601 148.991 119.611 145.403 C 119.626 140.183 117.118 144.69 114.727 154.178 C 113.461 159.203 113.191 160.661 113.527 160.661 C 113.653 160.661 114.129 160.214 114.585 159.668 Z M 47.936 155.785 C 49.166 152.644 50.353 151.013 52.808 149.089 C 57.743 145.221 58.675 143.92 56.178 144.382 C 52.655 145.034 49.153 149.248 47.41 154.934 C 46.352 158.389 46.698 158.949 47.936 155.785 Z M 139.545 145.054 C 137.294 144.253 131.521 143.307 131.521 143.739 C 131.521 143.959 139.008 145.52 140.12 145.532 C 140.785 145.539 140.692 145.462 139.545 145.054 Z M 70.268 144.025 C 71.719 143.714 71.849 142.93 71.169 138.564 C 70.435 133.856 70.576 134.08 68.749 134.709 C 67.931 134.99 66.331 135.363 65.194 135.537 C 64.057 135.711 63 135.886 62.846 135.926 C 62.691 135.966 62.413 136.518 62.228 137.151 C 62.043 137.785 61.407 139.416 60.815 140.776 C 59.949 142.766 59.81 143.293 60.101 143.474 C 60.92 143.98 68.546 144.393 70.268 144.025 Z M 123.584 142.788 C 123.584 142.708 123.181 142.474 122.69 142.268 C 119.311 140.857 118.541 137.659 120.014 131.164 C 121.013 126.763 120.571 126.871 119.486 131.294 C 118.149 136.739 118.384 139.833 120.27 141.604 C 120.978 142.27 123.584 143.2 123.584 142.788 Z M 76.349 139.692 C 77.412 137.331 78.106 129.69 77.097 131.447 C 76.416 132.633 75.05 141.081 75.538 141.081 C 75.64 141.081 76.005 140.456 76.349 139.692 Z M 52.808 139.23 C 57.522 138.561 57.282 138.741 57.398 135.791 C 57.51 132.918 56.873 131.885 55.186 132.201 C 53.469 132.523 51.366 132.42 50.696 131.981 C 50.34 131.747 49.695 131.556 49.264 131.556 C 47.335 131.556 47.013 129.83 48.021 124.886 C 49.487 117.701 51.551 117.541 50.71 124.677 C 49.928 131.314 49.835 131.147 53.998 130.622 C 55.672 130.411 57.636 130.233 58.364 130.226 C 63.07 130.181 63.335 126.94 59.704 113.829 C 58.918 110.992 58.196 108.282 58.1 107.808 C 57.77 106.19 56.663 106.151 53.671 107.65 C 52.982 107.996 50.948 108.755 49.151 109.337 C 44.224 110.933 44.572 110.26 40.753 125.573 C 37.065 140.363 37.928 141.341 52.808 139.23 Z M 146.77 139.296 C 146.697 139.041 146.555 137.553 146.456 135.988 C 146.274 133.13 146.017 132.435 145.709 133.971 C 145.323 135.903 145.956 139.759 146.66 139.759 C 146.794 139.759 146.843 139.55 146.77 139.296 Z M 59.134 138.066 C 60.391 137.541 60.417 137.401 59.656 135.227 C 59.172 133.844 59.011 132.943 59.101 132.132 C 59.266 130.658 59.229 130.648 55.448 131.144 C 51.678 131.638 51.191 131.882 54.417 131.658 C 57.767 131.427 58.099 131.79 58.099 135.679 C 58.099 137.195 58.133 138.436 58.174 138.436 C 58.215 138.436 58.647 138.269 59.134 138.066 Z M 66.631 134.576 C 68.99 134.054 70.138 133.524 70.136 132.959 C 70.122 130.106 69.894 129.774 68.047 129.906 C 66.009 130.052 65.171 129.58 66.085 128.801 C 69.265 126.091 69.475 125.643 67.292 126.227 C 63.895 127.135 63.407 127.696 63.225 130.895 C 63.134 132.496 62.972 134.136 62.864 134.541 C 62.642 135.375 63.005 135.378 66.631 134.576 Z M 62.297 133.872 C 62.649 131.348 62.789 128.647 62.568 128.656 C 62.294 128.667 61.139 129.644 60.667 130.265 C 60.359 130.669 60.823 134.001 61.292 134.761 C 61.66 135.356 62.151 134.922 62.297 133.872 Z M 72.149 132.333 C 74.426 130.926 75.89 128.381 74.423 128.381 C 72.656 128.381 70.363 129.443 70.502 130.197 C 70.573 130.581 70.704 131.341 70.793 131.887 C 70.983 133.044 70.993 133.048 72.149 132.333 Z M 49.717 128.844 C 49.728 127.644 49.861 125.828 50.011 124.81 C 50.62 120.675 50.21 119.439 49.287 122.627 C 47.712 128.064 47.792 130.784 49.532 131.006 C 49.622 131.018 49.705 130.045 49.717 128.844 Z M 147.962 129.338 C 148.537 128.845 149.539 128.161 150.187 127.817 C 151.429 127.158 151.778 126.613 150.77 126.905 C 150.442 127 149.298 127.151 148.228 127.241 C 146.282 127.404 146.282 127.404 146.439 128.356 C 146.526 128.879 146.598 129.516 146.6 129.771 C 146.604 130.413 146.766 130.362 147.962 129.338 Z M 68.617 129.161 C 69.46 128.927 69.609 128.775 69.609 128.149 C 69.609 127.023 69.368 126.997 68.203 127.994 C 67.614 128.498 67.035 128.911 66.915 128.911 C 66.796 128.911 66.698 129.03 66.698 129.175 C 66.698 129.514 67.364 129.509 68.617 129.161 Z M 65.64 126.098 C 66.586 125.699 67.802 125.367 68.342 125.361 C 69.189 125.352 69.307 125.277 69.203 124.816 C 69.087 124.302 68.554 116.215 68.552 114.926 C 68.551 114.504 68.432 114.347 68.185 114.442 C 67.984 114.519 67.427 114.176 66.943 113.677 C 65.804 112.502 65.744 112.513 64.052 114.226 C 62.551 115.747 61.987 115.959 61.293 115.266 C 60.744 114.716 60.765 114.957 61.503 117.718 C 62.039 119.718 62.605 122.633 63.156 126.221 C 63.24 126.771 63.409 127.05 63.606 126.963 C 63.779 126.887 64.694 126.497 65.64 126.098 Z M 125.708 124.928 C 126.036 124.315 126.041 123.354 125.716 123.354 C 125.32 123.354 124.642 124.472 124.642 125.125 C 124.642 125.821 125.294 125.701 125.708 124.928 Z M 144.745 124.497 C 144.339 123.228 143.957 122.782 143.957 123.579 C 143.957 124.249 144.714 125.86 144.929 125.646 C 145.005 125.569 144.923 125.052 144.745 124.497 Z M 63.854 113.405 C 65.59 111.725 65.596 111.713 64.743 111.713 C 63.791 111.713 61.06 109.561 59.91 107.905 C 58.74 106.221 58.25 105.959 58.992 107.414 C 59.27 107.96 59.886 109.656 60.36 111.184 C 61.707 115.523 61.682 115.507 63.854 113.405 Z M 136.945 114.265 C 137.673 113.925 139.042 113.023 139.988 112.26 C 140.934 111.496 142.035 110.701 142.436 110.492 C 143.164 110.111 143.164 110.111 141.113 108.719 C 139.278 107.473 137.525 105.587 136.416 103.664 C 136.18 103.254 136.027 103.32 134.994 104.274 C 134.358 104.861 133.259 105.534 132.553 105.768 C 131.269 106.195 131.269 106.195 131.844 106.972 C 132.418 107.749 132.418 107.749 131.807 109.135 C 129.707 113.906 132.258 116.453 136.945 114.265 Z M 67.925 111.264 C 67.854 111.193 67.376 111.287 66.863 111.473 C 65.929 111.81 65.929 111.81 66.909 112.66 C 67.78 113.415 68.748 112.086 67.925 111.264 Z M 74.01 108.932 C 74.273 108.571 74.344 108.072 74.235 107.347 C 73.839 104.734 73.247 104.236 69.818 103.633 C 68.642 103.426 67.459 103.187 67.189 103.102 C 66.396 102.85 66.572 103.682 67.865 106.289 C 68.514 107.598 69.114 108.891 69.197 109.161 C 69.426 109.901 73.44 109.71 74.01 108.932 Z M 144.361 109.133 C 144.194 108.705 143.882 106.607 142.767 98.424 C 141.658 90.283 136.909 86.705 130.485 89.171 C 128.991 89.745 128.815 90.194 130.133 90.068 C 133.717 89.727 138.254 97.372 136.853 101.392 C 136.301 102.976 138.523 106.109 141.711 108.241 C 143.835 109.662 144.679 109.946 144.361 109.133 Z M 68.367 108.868 C 68.276 108.614 67.75 107.572 67.198 106.553 C 66.647 105.535 66.114 104.165 66.015 103.511 C 65.915 102.856 65.651 102.11 65.428 101.853 C 64.676 100.989 64.652 98.42 65.396 98.527 C 66.076 98.625 66.364 99.307 66.407 100.924 C 66.44 102.153 67.082 102.534 69.83 102.958 C 70.897 103.123 72.192 103.434 72.706 103.649 C 73.221 103.864 73.657 104.04 73.676 104.04 C 73.695 104.041 73.671 103.221 73.623 102.218 C 73.546 100.594 73.599 100.35 74.109 99.993 C 74.683 99.592 74.683 99.592 74.106 98.31 C 73.683 97.371 73.514 96.428 73.473 94.779 C 73.388 91.457 72.528 89.446 71.064 89.152 C 67.145 88.364 66.343 88.748 65.493 91.82 C 64.397 95.781 64.651 95.449 62.773 95.376 C 59.905 95.265 59.305 96.405 61.037 98.676 C 61.752 99.612 61.752 99.612 62.117 98.916 C 62.611 97.973 63.711 97.951 63.944 98.88 C 64.183 99.832 63.902 100.336 63.135 100.336 C 62.168 100.336 62.116 104.563 63.06 106.425 C 63.996 108.272 68.977 110.565 68.367 108.868 Z M 130.569 105.492 C 135.266 104.593 136.115 103.291 134.693 99.168 C 131.768 90.686 127.247 88.689 127.113 95.819 C 127.089 97.066 126.988 98.525 126.887 99.061 C 126.757 99.757 126.869 100.51 127.282 101.702 C 127.638 102.731 127.799 103.665 127.704 104.144 C 127.581 104.756 128.069 105.893 128.453 105.892 C 128.467 105.892 129.419 105.712 130.569 105.492 Z M 58.918 98.664 C 56.339 91.191 59.575 84.82 66.045 84.634 C 68.772 84.556 66.093 83.667 63.13 83.667 C 56.707 83.667 54.233 93.602 58.84 100.898 C 59.71 102.275 59.752 101.079 58.918 98.664 Z M 136.228 98.947 C 135.981 95.161 131.407 89.14 129.967 90.704 C 129.876 90.802 129.967 90.942 130.17 91.014 C 132.126 91.708 134.469 95.595 135.906 100.534 C 136.175 101.458 136.339 100.648 136.228 98.947 Z M 63.259 99.114 C 63.259 98.896 63.14 98.79 62.994 98.88 C 62.849 98.97 62.73 99.223 62.73 99.441 C 62.73 99.659 62.849 99.764 62.994 99.674 C 63.14 99.584 63.259 99.332 63.259 99.114 Z" id="path1"/>
  </g>
</svg>