<?xml version="1.0" encoding="utf-8"?>
<svg viewBox="0 0 406.39 320.69" xmlns="http://www.w3.org/2000/svg" xmlns:xlink="http://www.w3.org/1999/xlink">
  <defs>
    <linearGradient id="linear-gradient" x1="270.74" y1="-1978.8" x2="202.24" y2="-1981.81" gradientTransform="matrix(1, 0, 0, -1, -4.03, -1773.45)" gradientUnits="userSpaceOnUse">
      <stop offset="0.01"/>
      <stop offset="1" stop-opacity="0"/>
    </linearGradient>
    <linearGradient id="linear-gradient-2" x1="441.65" y1="-2187.71" x2="219.2" y2="-1982.21" xlink:href="#linear-gradient"/>
    <linearGradient id="linear-gradient-3" x1="204.74" y1="-2048.22" x2="206.43" y2="-2076.73" gradientTransform="matrix(1, 0, 0, -1, 0, -1744)" xlink:href="#linear-gradient"/>
    <linearGradient id="linear-gradient-4" x1="259.23" y1="-1898.67" x2="253.39" y2="-1944.4" xlink:href="#linear-gradient"/>
    <linearGradient id="linear-gradient-5" x1="253.75" y1="-1940.7" x2="274.92" y2="-1960.74" gradientTransform="matrix(1, 0, 0, -1, -4.03, -1773.45)" gradientUnits="userSpaceOnUse">
      <stop offset="0.02" stop-color="#fff" stop-opacity="0"/>
      <stop offset="0.58" stop-color="#fff" stop-opacity="0.39"/>
      <stop offset="1" stop-color="#fff"/>
    </linearGradient>
    <linearGradient id="linear-gradient-6" x1="250.41" y1="-1950.44" x2="229.94" y2="-1951.85" xlink:href="#linear-gradient-5"/>
    <linearGradient id="linear-gradient-7" x1="245.57" y1="-1889.01" x2="143.95" y2="-2068.55" xlink:href="#linear-gradient"/>
    <linearGradient id="linear-gradient-8" x1="181.28" y1="-2131.2" x2="119.18" y2="-1958.44" gradientTransform="matrix(1, 0, 0, -1, -4.03, -1773.45)" gradientUnits="userSpaceOnUse">
      <stop offset="0.01"/>
      <stop offset="0.09" stop-opacity="0.82"/>
      <stop offset="1" stop-opacity="0"/>
    </linearGradient>
    <linearGradient id="linear-gradient-9" x1="246.96" y1="-1809.36" x2="249.03" y2="-1831" xlink:href="#linear-gradient"/>
    <linearGradient id="linear-gradient-10" x1="224.6" y1="-1830.53" x2="214.15" y2="-1871.47" gradientTransform="matrix(1, 0, 0, -1, 0, -1744)" xlink:href="#linear-gradient"/>
    <linearGradient id="linear-gradient-11" x1="271.43" y1="-1838.8" x2="254.5" y2="-1852.35" xlink:href="#linear-gradient"/>
    <linearGradient id="linear-gradient-12" x1="285.59" y1="-1851.76" x2="271.24" y2="-1854.63" gradientTransform="matrix(1, 0, 0, -1, 0, -1744)" xlink:href="#linear-gradient"/>
    <linearGradient id="linear-gradient-13" x1="291.58" y1="-1832.51" x2="259.12" y2="-1846.63" xlink:href="#linear-gradient"/>
    <linearGradient id="linear-gradient-14" x1="58.42" y1="-1811.19" x2="52.45" y2="-1930.54" gradientTransform="matrix(1, 0, 0, -1, 0, -1744)" gradientUnits="userSpaceOnUse">
      <stop offset="0.02" stop-color="#fff" stop-opacity="0"/>
      <stop offset="0.58" stop-color="#fff" stop-opacity="0.39"/>
      <stop offset="0.68" stop-color="#fff" stop-opacity="0.68"/>
      <stop offset="1" stop-color="#fff"/>
    </linearGradient>
    <linearGradient id="linear-gradient-15" x1="152.93" y1="-1876.65" x2="129.22" y2="-1933.39" gradientTransform="matrix(1, 0, 0, -1, -4.03, -1773.45)" xlink:href="#linear-gradient-14"/>
    <linearGradient id="linear-gradient-16" x1="221.65" y1="-1867.38" x2="223.72" y2="-1837.83" xlink:href="#linear-gradient"/>
    <linearGradient id="linear-gradient-17" x1="262.01" y1="-1894.05" x2="272.31" y2="-1915.22" gradientTransform="matrix(1, 0, 0, -1, -4.03, -1773.45)" xlink:href="#linear-gradient-14"/>
    <linearGradient id="linear-gradient-18" x1="251.04" y1="-1900.41" x2="238.62" y2="-1925.44" xlink:href="#linear-gradient"/>
    <style>.cls-1,.cls-19,.cls-21,.cls-6{fill:#be22f2;}.cls-1{opacity:0.18;}.cls-1,.cls-19,.cls-21{isolation:isolate;}.cls-2{fill:#C49071;}.cls-3{fill:#fff;}.cls-4{fill:url(#linear-gradient);}.cls-5{fill:url(#linear-gradient-2);}.cls-7{fill:url(#linear-gradient-3);}.cls-8{fill:url(#linear-gradient-4);}.cls-9{fill:url(#linear-gradient-5);}.cls-10{fill:url(#linear-gradient-6);}.cls-11{fill:url(#linear-gradient-7);}.cls-12{fill:url(#linear-gradient-8);}.cls-13{fill:url(#linear-gradient-9);}.cls-14{fill:url(#linear-gradient-10);}.cls-15{fill:#3f3d56;}.cls-16{fill:url(#linear-gradient-11);}.cls-17{fill:url(#linear-gradient-12);}.cls-18{fill:url(#linear-gradient-13);}.cls-19{opacity:0.45;}.cls-20{fill:url(#linear-gradient-14);}.cls-21{opacity:0.51;}.cls-22{fill:url(#linear-gradient-15);}.cls-23{fill:url(#linear-gradient-16);}.cls-24{fill:url(#linear-gradient-17);}.cls-25{fill:url(#linear-gradient-18);}</style>
  </defs>
  <g id="Layer_2" data-name="Layer 2">
    <g id="Layer_1-2" data-name="Layer 1">
      <path class="cls-1" d="M361.05,309.73c21.17-8,40.31-25.11,44.46-47.37,3.42-18.36-3.63-37-12.2-53.61s-18.95-32.66-22.95-50.9c-7.45-33.92,7.92-71.55-6.68-103.06-4.39-9.46-11.25-17.62-19-24.57C310.79-.06,259.9-6.84,216.49,6.55S136.84,51.2,110.18,88c-11,15.16-20.56,31.35-32.55,45.72-16,19.14-36.72,35.94-43.66,59.85-5,17.28-2,36,4,53C47.2,272.61,87,319,105.9,318.87c42.19-.21,123.14,1.86,162.25.36C297.45,318.08,330.38,321.31,361.05,309.73Z" style="fill: rgb(242, 34, 238);"/>
      <path class="cls-2" d="M180.2,274.62c-1,2.85-1.88,6.12-.43,8.77a11.25,11.25,0,0,0,3.81,3.58l13.8,9.38c2.65,1.8,5.46,3.65,8.64,3.89s6.79-1.79,7.06-5c.32-3.67-3.53-6.18-5.33-9.4-2.36-4.22-1.06-9.45.17-14.13a258.44,258.44,0,0,0,6.78-35.86c-2.83-1.16-11.07-6.35-14-5.49-3.3,1-6.28,10.23-7.75,13.24A239.22,239.22,0,0,0,180.2,274.62Z"/>
      <path class="cls-3" d="M206.67,195.47c-3.58,10.17-7.38,20.37-13.12,29.51a1.07,1.07,0,0,0,.25,1.71c5.77,5.05,12,10.32,19.59,11.41a1.84,1.84,0,0,0,2.4-1.4c4.84-11.21,6.55-23.49,6.39-35.63A146.52,146.52,0,0,0,220.74,183c-.2-1.46-.31-7.94-1.58-8.7-1.93-1.14-4,2.84-4.89,4.09C210.79,183.55,208.73,189.55,206.67,195.47Z"/>
      <path class="cls-4" d="M222.36,176.09s-4.51,1.69-8.18,14.39S201.75,234,201.75,234s13.55,6.77,16.94,4.23S222.36,176.09,222.36,176.09Z"/>
      <path class="cls-3" d="M260.8,163c7.38-.23,14.85.13,21.95,2.13s13.85,5.78,18.51,11.51c5.16,6.34,7.42,14.63,7.94,22.78s-.56,16.32-1.38,24.46a388,388,0,0,0-1.52,57.35c.22,4.58,2.84,28.49-.38,31.76-2,2.06,2,4.12-.85,4.8-23.3,5.6-65.16,2.85-87.22-6.49-5.61-2.38-11.24-5.69-14-11.11-3-5.87,5.1-29.14,6.07-35.67q4.41-29.89,6.36-60.1c.57-8.91-.09-18.51,1.74-27.26,1.33-6.35,5.42-8.08,11.32-9.64A142.34,142.34,0,0,1,260.8,163Z"/>
      <path class="cls-5" d="M280,267.26c-.77,4.05-1.78,8.28-4.55,11.34a19.53,19.53,0,0,1-7.82,4.78c-13.9,5.24-29.75,4.42-43.07,11a9.42,9.42,0,0,0-2.56,1.67c-2.57,2.54-1.85,7,.19,10,4.53,6.63,13.34,8.49,21.29,9.72,19.06,3,38.52,5.45,57.57,2.38a5.27,5.27,0,0,0,2.85-1.09,5.12,5.12,0,0,0,1.21-2.7c4.32-19.18.92-39.15.84-58.81,0-11.34,1-22.69.23-34A69,69,0,0,0,301.81,201c-1.77-4.48-6.95-14.37-10.06-5.19-4.94,14.59-6.36,30.32-8.14,45.53C282.64,250,281.6,258.67,280,267.26Z"/>
      <rect class="cls-6" x="116.1" y="302.42" width="178.04" height="16.42" rx="8.21"/>
      <rect class="cls-7" x="116.1" y="302.42" width="178.04" height="16.42" rx="8.21"/>
      <path class="cls-2" d="M243,178.55c-3.31-.53-5.17-3.86-3.69-11.88.16-.89.37-1.75.61-2.61a2.14,2.14,0,0,1,.13-.48h0c.36-1.24.77-2.48,1.17-3.71a27.22,27.22,0,0,0,1.74-9.23c-.09-2.3-.27-4.69.58-6.81a11.18,11.18,0,0,1,3.71-4.49c3.57-2.75,14-7.92,16-1.09.89,2.92.24,6.32.2,9.31a28.05,28.05,0,0,0,2.3,12.49C267.9,164.43,251.1,179.85,243,178.55Z"/>
      <path class="cls-8" d="M240.62,162.26s18.44-7,22-18.07L243,150.62S242.5,160.75,240.62,162.26Z"/>
      <path class="cls-3" d="M290.61,186.2a123.94,123.94,0,0,0,10.08,61.19,4.53,4.53,0,0,0,1.23,1.85,5,5,0,0,0,3,.74,36.81,36.81,0,0,0,22.86-7.34c2-1.51,3.88-3.44,4.05-5.79a9.43,9.43,0,0,0-.73-3.67,408.35,408.35,0,0,0-17.85-43.51c-2.52-5.24-5.9-11.38-12-13.69C293.91,173.21,291.12,180.72,290.61,186.2Z"/>
      <path class="cls-6" d="M254.88,198.16c5.47-5.77,9.48-12.74,13.44-19.63,2.41-4.2,4.88-8.59,5.22-13.43a2.64,2.64,0,0,0-.25-1.61,2.77,2.77,0,0,0-.92-.85l-7.51-5.09c-.13,4.61-3.44,8.57-7.22,11.22-4,2.84-15.45,5.95-13,11.84C245.25,182.1,254.24,198.83,254.88,198.16Z"/>
      <path class="cls-6" d="M243,178.55a131.86,131.86,0,0,1-7.51,12.91c-1.06,1.61-2.25,3.28-4,4a1.08,1.08,0,0,1-.73.1c-.44-.15-.54-.73-.57-1.19-.37-7.69-.73-15.51,1.15-23a21,21,0,0,1,3.24-7.41c.54-.72,4.86-3.82,6.68-4.15-.4,1.23-.81,2.47-1.17,3.71h0a1.23,1.23,0,0,0-.12.37V164c-.24.86-.45,1.72-.61,2.61C237.83,174.69,239.69,178,243,178.55Z"/>
      <path class="cls-9" d="M254.88,198.16c5.47-5.77,9.48-12.74,13.44-19.63,2.41-4.2,4.88-8.59,5.22-13.43a2.64,2.64,0,0,0-.25-1.61,2.77,2.77,0,0,0-.92-.85l-7.51-5.09c-.13,4.61-3.44,8.57-7.22,11.22-4,2.84-15.45,5.95-13,11.84C245.25,182.1,254.24,198.83,254.88,198.16Z"/>
      <path class="cls-10" d="M243,178.55a131.86,131.86,0,0,1-7.51,12.91c-1.06,1.61-2.25,3.28-4,4a1.08,1.08,0,0,1-.73.1c-.44-.15-.54-.73-.57-1.19-.37-7.69-.73-15.51,1.15-23a21,21,0,0,1,3.24-7.41c.54-.72,4.86-3.82,6.68-4.15-.4,1.23-.81,2.47-1.17,3.71h0a1.23,1.23,0,0,0-.12.37V164c-.24.86-.45,1.72-.61,2.61C237.83,174.69,239.69,178,243,178.55Z"/>
      <path class="cls-2" d="M297.61,306.18l43.8-8.37c2.59-.5,5.29-1,7.34-2.7,2.81-2.26,3.8-6.22,3.39-9.81s-2-6.92-3.58-10.18c-6.22-12.88-18.84-36-18.92-34.65-7.66,1.62-14,1.7-20.58,5.91a7.51,7.51,0,0,0-2.78,2.59c-2.63,5,4.56,12.3,7,16.1a9.35,9.35,0,0,1,1.82,4.15,6.92,6.92,0,0,1-.58,3.11c-2.37,5.82-10.81,9.21-16,12.2A53.87,53.87,0,0,1,276.24,292c-6.12.52-12.37-.27-18.35,1.1a26.29,26.29,0,0,0-17.23,13.44c3.56,2.26,8.19.95,12.29-.08a71.93,71.93,0,0,1,23.25-1.87C281.26,305,295.21,310.89,297.61,306.18Z"/>
      <path class="cls-6" d="M229.89,318.85h-124l-32.71-83a7.29,7.29,0,0,1,4.06-9.48,7.43,7.43,0,0,1,2.72-.52H177.3a23.46,23.46,0,0,1,21.85,14.87Z"/>
      <path class="cls-11" d="M229.89,318.85h-124l-32.71-83a7.29,7.29,0,0,1,4.06-9.48,7.43,7.43,0,0,1,2.72-.52H177.3a23.46,23.46,0,0,1,21.85,14.87Z"/>
      <path class="cls-12" d="M223.59,318.94H105.77L74.69,240.13a6.94,6.94,0,0,1,3.91-9,6.81,6.81,0,0,1,2.53-.48h92.46a22.35,22.35,0,0,1,20.76,14.13Z"/>
      <path class="cls-6" d="M239,45c3-1.76,6-3.55,9.39-4.21s8-.26,10.29,2.3a21.42,21.42,0,0,0-15.29,8.07,1.47,1.47,0,0,1-.77.66,1.42,1.42,0,0,1-.81-.15c-1.38-.52-11.72,1.84-12.32.59C229.49,52.3,237.7,45.81,239,45Z"/>
      <path class="cls-13" d="M239,45c3-1.76,6-3.55,9.39-4.21s8-.26,10.29,2.3a21.42,21.42,0,0,0-15.29,8.07,1.47,1.47,0,0,1-.77.66,1.42,1.42,0,0,1-.81-.15c-1.38-.52-11.72,1.84-12.32.59C229.49,52.3,237.7,45.81,239,45Z"/>
      <ellipse class="cls-6" cx="216.62" cy="106.34" rx="12.14" ry="14.96" style="fill: rgb(190, 34, 242);"/>
      <ellipse class="cls-6" cx="219.11" cy="108.02" rx="11.23" ry="13.84"/>
      <ellipse class="cls-14" cx="219.11" cy="108.02" rx="11.23" ry="13.84"/>
      <path class="cls-2" d="M215.16,80.14,218,131.55s1.25,19.4,20.48,19.59c23.1.23,30.13-13.2,33.64-23.42s6.68-40.24,0-48.54S227.82,50.45,215.16,80.14Z"/>
      <path class="cls-15" d="M229.77,49.27c-9.06-.16-19.41,4.07-23.54,12.62A14.79,14.79,0,0,0,206,74.62a9,9,0,0,1,.78,1.87,8.75,8.75,0,0,1,0,2.17,10.59,10.59,0,0,0,4.29,9c1.59,1.15,3.52,1.87,4.79,3.36l-.49-9.57a2,2,0,0,1,1.52-2.38l6.09-2.84s1.88,1.37,2.11,1.48a7.63,7.63,0,0,0,3.2.61,44.87,44.87,0,0,0,7.14-.4c5.11-.73,10-2.6,14.77-4.46a6.68,6.68,0,0,1-1.82,3.94l15.53,3a42.29,42.29,0,0,1,5.45,10.18,35.59,35.59,0,0,1,2.1,8.81,31.77,31.77,0,0,1-1.13,12.19,12.82,12.82,0,0,0,2.74-2.86,16,16,0,0,0,4.6,2.19,2,2,0,0,0,1.07.09c.76-.21.92-1.11,1-1.83.62-6.45,5.42-11.9,7.62-18.06,2.67-7.46,1.32-15.85-2.76-22.76a18.31,18.31,0,0,0-4.83-5.64c-7.15-5.24-17.31-2.84-25.47-5.58-3.88-1.3-7-3.77-10.71-5.4C239.42,50,234.26,49.35,229.77,49.27Z"/>
      <path class="cls-16" d="M229.77,49.27c-9.06-.16-19.41,4.07-23.54,12.62A14.79,14.79,0,0,0,206,74.62a9,9,0,0,1,.78,1.87,8.75,8.75,0,0,1,0,2.17,10.59,10.59,0,0,0,4.29,9c1.59,1.15,3.52,1.87,4.79,3.36l-.49-9.57a2,2,0,0,1,1.52-2.38l6.09-2.84s1.88,1.37,2.11,1.48a7.63,7.63,0,0,0,3.2.61,44.87,44.87,0,0,0,7.14-.4c5.11-.73,10-2.6,14.77-4.46a6.68,6.68,0,0,1-1.82,3.94l15.53,3a42.29,42.29,0,0,1,5.45,10.18,35.59,35.59,0,0,1,2.1,8.81,31.77,31.77,0,0,1-1.13,12.19,12.82,12.82,0,0,0,2.74-2.86,16,16,0,0,0,4.6,2.19,2,2,0,0,0,1.07.09c.76-.21.92-1.11,1-1.83.62-6.45,5.42-11.9,7.62-18.06,2.67-7.46,1.32-15.85-2.76-22.76a18.31,18.31,0,0,0-4.83-5.64c-7.15-5.24-17.31-2.84-25.47-5.58-3.88-1.3-7-3.77-10.71-5.4C239.42,50,234.26,49.35,229.77,49.27Z"/>
      <ellipse class="cls-6" cx="283.49" cy="108.18" rx="12.01" ry="14.81"/>
      <ellipse class="cls-17" cx="283.49" cy="108.18" rx="12.01" ry="14.81"/>
      <ellipse class="cls-6" cx="288.09" cy="108.18" rx="12.01" ry="14.81" style="fill: rgb(190, 34, 242);"/>
      <path class="cls-6" d="M288.18,94.55l-6,.64-1.43.15-6-29.53C271.63,54.13,264,45.15,254.43,41.67a10.82,10.82,0,0,0-4.62-.55l-4.09.37,2-.53,4-1.06a13.09,13.09,0,0,1,3.84-.47c10.68.39,20.81,9,24.48,21.34Z"/>
      <path class="cls-18" d="M288.18,94.55l-6,.64-1.43.15-6-29.53C271.63,54.13,264,45.15,254.43,41.67a10.82,10.82,0,0,0-4.62-.55l-4.09.37,2-.53,4-1.06a13.09,13.09,0,0,1,3.84-.47c10.68.39,20.81,9,24.48,21.34Z"/>
      <path class="cls-6" d="M288.18,94.55l-6,.64-6-29.6c-3.17-11.8-10.87-20.85-20.53-24.36a10.44,10.44,0,0,0-4.67-.56l-3.26.29,4-1.06a13.09,13.09,0,0,1,3.84-.47c10.68.39,20.81,9,24.48,21.34Z" style="fill: rgb(190, 34, 242);"/>
      <rect class="cls-19" y="5.16" width="177.91" height="203.46" rx="15.64" style="fill: rgb(200, 34, 242);"/>
      <circle class="cls-20" cx="53.65" cy="162.54" r="26.62"/>
      <rect class="cls-6" x="15.85" y="24.45" width="113.71" height="6.4" style="fill: rgb(190, 34, 242);"/>
      <rect class="cls-21" x="19.28" y="108.61" width="113.71" height="6.4" style="fill: rgb(190, 34, 242);"/>
      <rect class="cls-6" x="19.28" y="97.66" width="80.83" height="6.4" style="fill: rgb(190, 34, 242);"/>
      <rect class="cls-6" x="111.17" y="97.66" width="54.11" height="6.4" style="fill: rgb(190, 34, 242);"/>
      <rect class="cls-6" x="81.9" y="57.15" width="83.2" height="5.69" style="fill: rgb(190, 34, 242);"/>
      <rect class="cls-21" x="64.47" y="67.24" width="89.01" height="5.69" style="fill: rgba(190, 34, 242, 0.57);"/>
      <rect class="cls-6" x="20.83" y="57.15" width="54.72" height="5.69" style="fill: rgb(190, 34, 242);"/>
      <rect class="cls-6" x="44.83" y="77.04" width="120.27" height="5.69" style="fill: rgb(190, 34, 242);"/>
      <rect class="cls-21" x="20.83" y="77.04" width="17.66" height="5.69" style="fill: rgba(190, 34, 242, 0.57);"/>
      <rect class="cls-21" x="85.71" y="87.14" width="79.38" height="5.69" style="fill: rgb(190, 34, 242);"/>
      <rect class="cls-6" x="20.83" y="87.14" width="54.72" height="5.69" style="fill: rgb(190, 34, 242);"/>
      <rect class="cls-6" x="20.83" y="67" width="35.19" height="5.69" style="fill: rgb(190, 34, 242);"/>
      <path class="cls-6" d="M59.55,145C58,147,57.73,149.62,58,152a3.31,3.31,0,0,1,0,1.33,3,3,0,0,1-.6,1,102.87,102.87,0,0,1-14.17,14.44,1.18,1.18,0,0,1-1.51.18c-1.5-.59-3.11-1.23-4.68-.85a4.71,4.71,0,0,0-3.09,3,8,8,0,0,0-.23,4.39c1.71-1.42,3.48-2.75,5.33-4l2.63,2.61a1.17,1.17,0,0,1,.46.88,1.13,1.13,0,0,1-.31.54L38,180.09a7.51,7.51,0,0,0,7.69-1.28c2-1.9,2.3-5.45.34-7.36l14.89-16.69a5.7,5.7,0,0,0,6.91-.1A7.48,7.48,0,0,0,70.4,148a27.92,27.92,0,0,0-5.12,3.94l-3-3.74c1.06-1,5.17-3.76,2.5-4.84C63,142.65,60.69,143.65,59.55,145Z" style="fill: rgb(190, 34, 242);"/>
      <path class="cls-22" d="M145.74,172l1.43-4.55s-5.65-4.46-5.82-4.18l-.23-3.29,5.17-5.5-2.38-4.13s-7,1.14-7,1.46a33.62,33.62,0,0,0-4.35-3.45l-.22-7.5-4.6-1.25s-4.21,5.84-3.93,6c0,0-3.24.68-4.79,1.17l-5.24-4.46-4,2.58s1.19,5.57,1.66,6.74c-1.12,1.23-2.52,2.62-2.52,2.62l-7.46,1.2-.64,4.72s5.25,2.84,6.27,3.13a16.39,16.39,0,0,0,.7,4.51l-4.07,6.26,3.07,3.64s4.07-1.43,5.84-2.21c1.65,1.5,4,3.28,4,3.28l1.88,7.32,4.76.2s2.29-5.33,2.53-6.5a23.68,23.68,0,0,1,4.61-.06l6.69,3.51,3.35-3.4a68.32,68.32,0,0,0-3.23-6.32,13.4,13.4,0,0,0,1.15-1.64Zm-22.2.17a9.46,9.46,0,1,1,9.45-9.47h0A9.47,9.47,0,0,1,123.54,172.19Z"/>
      <path class="cls-23" d="M208.7,77.55c1.77-3.5,5.61-5.58,9.48-6.21s7.83,0,11.7.54c-3.75,3-14.22,7.47-14.42,8.27a24.25,24.25,0,0,0-.05,4.26c.14,2.06.21,4.22.2,6.28a15.88,15.88,0,0,0-3.22-2.44,8,8,0,0,1-2.7-1.73A8.31,8.31,0,0,1,208.7,77.55Z"/>
      <path class="cls-6" d="M259.63,144.08a46.56,46.56,0,0,1-13.3-2.22,2,2,0,1,1,1.15-3.84h0c10.3,3.1,18,2.69,23-1.22,6.74-5.29,6.3-15.37,6.3-15.47a2,2,0,1,1,4-.2c0,.49.53,12.27-7.83,18.83Q267.73,144.07,259.63,144.08Z"/>
      <path class="cls-24" d="M259.63,144.08a46.56,46.56,0,0,1-13.3-2.22,2,2,0,1,1,1.15-3.84h0c10.3,3.1,18,2.69,23-1.22,6.74-5.29,6.3-15.37,6.3-15.47a2,2,0,1,1,4-.2c0,.49.53,12.27-7.83,18.83Q267.73,144.07,259.63,144.08Z"/>
      <path class="cls-6" d="M247.37,134.64a5.29,5.29,0,0,1,2.53,2.74c.44,1.7-.88,3.33-2.24,4.44a8.44,8.44,0,0,1-4.15,2c-2.26.27-4.42-.95-6.3-2.24a8.33,8.33,0,0,1-2.62-2.53c-1.74-3.06.51-7,3.46-8.3C241.32,129.34,244.8,133,247.37,134.64Z"/>
      <path class="cls-25" d="M247.37,134.64a5.29,5.29,0,0,1,2.53,2.74c.44,1.7-.88,3.33-2.24,4.44a8.44,8.44,0,0,1-4.15,2c-2.26.27-4.42-.95-6.3-2.24a8.33,8.33,0,0,1-2.62-2.53c-1.74-3.06.51-7,3.46-8.3C241.32,129.34,244.8,133,247.37,134.64Z"/>
    </g>
  </g>
</svg>