<?xml version="1.0" standalone="no"?>
<!DOCTYPE svg PUBLIC "-//W3C//DTD SVG 20010904//EN"
 "http://www.w3.org/TR/2001/REC-SVG-20010904/DTD/svg10.dtd">
<svg version="1.0" xmlns="http://www.w3.org/2000/svg"
 width="940.000000pt" height="940.000000pt" viewBox="0 0 940.000000 940.000000"
 preserveAspectRatio="xMidYMid meet">
<metadata>
Created by potrace 1.14, written by Peter Selinger 2001-2017
</metadata>
<g transform="translate(0.000000,940.000000) scale(0.100000,-0.100000)"
fill="#000000" stroke="none">
<path d="M4417 8694 c-1 -1 -42 -5 -92 -9 -82 -5 -119 -10 -181 -20 -12 -2
-48 -7 -80 -11 -62 -8 -72 -10 -76 -14 -2 -1 -16 -4 -33 -6 -127 -20 -500
-134 -585 -179 -14 -7 -29 -14 -35 -15 -14 -3 -89 -36 -170 -77 -227 -114
-426 -247 -620 -413 -79 -67 -302 -296 -355 -365 -30 -38 -60 -76 -67 -83 -7
-8 -27 -35 -45 -60 -17 -26 -35 -48 -40 -50 -4 -2 -8 -10 -8 -18 0 -8 -4 -14
-10 -14 -5 0 -10 -6 -10 -13 0 -7 -9 -23 -20 -35 -11 -12 -20 -23 -20 -26 0
-6 -62 -109 -70 -116 -9 -8 -78 -139 -126 -240 -64 -132 -140 -318 -159 -390
-2 -8 -15 -50 -29 -92 -13 -43 -22 -78 -19 -78 3 0 0 -7 -7 -15 -7 -8 -10 -15
-7 -15 3 0 1 -15 -4 -32 -12 -40 -15 -55 -44 -228 -30 -174 -24 -656 9 -845 3
-16 8 -50 11 -74 3 -24 7 -47 9 -50 3 -4 7 -25 11 -49 26 -175 183 -673 280
-887 23 -50 54 -125 54 -128 -1 -7 148 -306 224 -447 28 -52 56 -105 61 -117
6 -13 14 -23 19 -23 4 0 7 -5 7 -10 0 -6 18 -40 40 -76 22 -36 40 -68 40 -71
0 -2 14 -24 30 -48 17 -24 30 -48 30 -54 0 -6 5 -11 10 -11 6 0 10 -7 10 -15
0 -8 5 -15 10 -15 6 0 10 -5 10 -11 0 -22 452 -690 472 -697 4 -2 8 -8 8 -13
0 -5 23 -39 50 -74 28 -35 50 -69 50 -74 0 -5 3 -11 8 -13 4 -1 54 -66 112
-143 114 -152 108 -145 172 -225 23 -30 56 -73 73 -95 31 -42 61 -79 83 -101
6 -7 12 -16 12 -20 0 -3 8 -14 18 -23 9 -9 29 -32 43 -51 15 -19 35 -45 45
-57 11 -11 35 -41 54 -64 45 -56 141 -171 155 -185 5 -6 21 -26 35 -44 14 -18
32 -40 40 -49 9 -9 40 -45 70 -81 30 -36 60 -69 66 -75 6 -5 62 -68 125 -140
164 -187 295 -330 460 -502 l59 -61 40 29 c109 79 247 220 432 444 18 22 43
51 55 65 12 14 31 36 42 50 12 14 43 49 69 79 26 29 54 62 62 73 8 10 33 38
55 61 22 23 56 62 75 87 19 25 40 50 46 55 6 6 37 42 69 80 32 39 61 72 64 75
3 3 33 39 66 80 33 41 68 84 77 95 38 45 54 65 78 96 14 18 31 38 38 45 6 7
12 15 12 17 0 3 9 16 20 29 11 12 51 64 89 113 39 50 76 97 83 105 7 9 38 49
68 90 30 41 64 86 77 99 13 13 23 30 23 37 0 8 3 14 8 14 4 0 18 17 32 38 14
20 30 42 36 48 11 12 127 174 224 314 33 47 63 90 68 95 15 18 179 269 246
375 36 58 70 110 76 117 5 7 10 19 10 27 0 8 4 16 8 18 8 3 26 33 116 188 14
25 38 70 53 100 16 30 31 57 34 60 8 6 202 401 205 415 1 6 12 33 24 60 42 95
50 112 85 206 20 52 38 101 42 109 3 8 7 20 8 26 2 7 12 38 23 70 31 91 71
226 77 261 3 18 9 42 14 55 5 13 9 26 9 31 0 4 6 31 12 60 24 118 32 168 46
287 24 220 25 555 0 745 -2 17 -7 59 -11 95 -4 36 -8 67 -10 70 -2 3 -6 26
-10 50 -3 25 -15 86 -27 135 -11 50 -21 98 -24 109 -2 10 -11 44 -20 75 -10
31 -18 61 -20 66 -3 16 -45 138 -54 160 -4 11 -19 47 -32 80 -38 99 -169 354
-216 423 -6 9 -37 55 -69 102 -31 47 -82 116 -112 155 -31 38 -63 78 -71 88
-72 91 -279 296 -387 384 -12 10 -38 31 -58 47 -61 49 -185 136 -194 136 -5 0
-11 4 -13 8 -4 10 -185 122 -197 122 -5 0 -11 3 -13 8 -5 11 -285 146 -348
167 -3 1 -18 7 -35 14 -16 6 -41 15 -55 20 -14 5 -34 13 -45 17 -11 4 -22 8
-25 9 -3 1 -12 4 -20 8 -18 7 -59 19 -210 59 -134 35 -143 37 -242 53 -18 3
-40 8 -48 10 -8 2 -42 7 -75 11 -33 4 -73 8 -90 10 -97 12 -170 16 -338 18
-104 1 -189 1 -190 0z"/>
</g>
</svg>
